<?xml version="1.0" standalone="no"?><!DOCTYPE svg PUBLIC "-//W3C//DTD SVG 1.1//EN" "http://www.w3.org/Graphics/SVG/1.1/DTD/svg11.dtd"><svg t="1631715166129" class="icon" viewBox="0 0 1024 1024" version="1.1" xmlns="http://www.w3.org/2000/svg" p-id="11569" xmlns:xlink="http://www.w3.org/1999/xlink" width="28" height="28"><defs><style type="text/css"></style></defs><path d="M185.483636 1020.346182c-17.268364 2.955636-25.856-1.396364-35.537454-10.333091-6.446545-5.957818-8.634182-17.384727-6.562909-34.304 42.658909-165.934545 123.392-306.269091 241.92-424.797091-54.760727-53.061818-47.406545-154.414545 0-211.316364 56.878545-61.626182 146.944-75.845818 218.065454-28.439272 71.098182 47.406545 94.813091 137.495273 56.878546 213.341091-31.185455 64.069818-105.378909 106.053818-213.597091 79.034181-113.803636 104.285091-196.770909 238.708364-234.682182 390.4-6.167273 15.639273-15.010909 24.436364-26.507636 26.414546zM899.723636 653.847273c-80.523636 139.636364-207.266909 207.104-368.290909 207.104-23.668364 0-72.424727-7.563636-72.424727-35.141818 0-11.729455 5.794909-23.226182 15.918545-28.858182 6.749091-3.770182 16.989091-5.632 30.72-5.632 108.218182 21.736727 269.824-48.197818 336.128-173.893818 66.304-125.672727 39.074909-331.264-65.11709-429.009455-108.916364-107.054545-322.746182-123.973818-455.354182-40.192-132.608 83.781818-211.851636 281.460364-150.272 425.751273 15.453091 31.418182 15.453091 52.410182 0 62.999272-11.240727 7.68-28.183273 7.563636-46.010182-6.632727-4.468364-3.560727-10.868364-11.52-19.130182-23.854545-23.691636-51.2-28.136727-125.672727-25.018182-181.457455 7.866182-140.613818 111.429818-311.086545 291.374546-376.250182C425.867636 29.370182 489.821091 20.782545 544.162909 23.272727c132.677818 6.097455 234.775273 63.790545 321.28 165.143273 61.975273 82.850909 82.944 171.52 82.944 264.331636 0 72.820364-9.984 134.656-48.616727 201.099637z" fill="#000000" p-id="11570"></path></svg>